<svg xmlns="http://www.w3.org/2000/svg" viewBox="0 0 64 64" role="img" aria-label="GitHub logo">
  <path
    fill="#ffffff"
    d="M32 8a24 24 0 0 0-7.6 46.8c1.2.2 1.6-.5 1.6-1.1v-3.8c-6.6 1.4-8-3.2-8-3.2-1-2.6-2.4-3.3-2.4-3.3-2-1.4.1-1.4.1-1.4 2.2.2 3.3 2.3 3.3 2.3 2 3.3 5.3 2.3 6.6 1.8.2-1.5.8-2.3 1.5-2.8-5.3-.6-10.8-2.7-10.8-12a9.3 9.3 0 0 1 2.5-6.5c-.3-.7-1.1-3.2.3-6.6 0 0 2-.7 6.7 2.5a23.2 23.2 0 0 1 12.2 0c4.7-3.2 6.7-2.5 6.7-2.5 1.4 3.4.5 5.9.3 6.6a9.2 9.2 0 0 1 2.5 6.5c0 9.3-5.5 11.3-10.8 12 .9.7 1.6 2 .1 4.2v6.2c0 .6.4 1.3 1.6 1.1A24 24 0 0 0 32 8Z"
  />
</svg>

